<svg id="0f740f7d-8645-4049-b0f3-b133254dbe36" data-name="Layer 1" xmlns="http://www.w3.org/2000/svg" viewBox="0 0 649.12 541.3"><title>logo</title><path d="M251.29,539.54c0-1.1-.16-2.21-.16-3.31q0-68.72,0-137.44c0-3.2,0-3.2-3.2-3.2H3.66a23.41,23.41,0,0,0-2.37,0c-1.59.16-2.41-.37-2.17-2.09a13.14,13.14,0,0,0,0-1.66v-263c0-.72,0-1.43,0-2.14-.09-1.15.44-1.57,1.53-1.53.87,0,1.74,0,2.61,0H248c3.12,0,3.12,0,3.12-3V1.07c0-2.82,0-2.83,2.8-2.83H645.11c1,0,2.06.05,3.08.07V395.69c-.94,0-1.89-.1-2.84-.1H417c-3.44,0-3.44,0-3.44,3.44q0,69.08,0,138.14c0,.79.06,1.58.09,2.37Zm198-162.44H626.62c3.41,0,3,.46,3-3q0-177.07,0-354.15c0-3.2,0-3.2-3.18-3.2H272.11c-3.08,0-3.08,0-3.08,3.09q0,177.2,0,354.39c0,3.3-.25,2.89,2.95,2.89ZM134,143.66q-57.07,0-114.16,0c-2.18,0-2.76.58-2.76,2.74q.09,114,0,228.08c0,2.21.64,2.72,2.78,2.72q114.29-.09,228.56,0c2.19,0,2.74-.58,2.74-2.74q-.09-114,0-228.08c0-2.21-.62-2.72-2.76-2.72Q191.22,143.7,134,143.66ZM332.15,521c20.25,0,40.5,0,60.75,0,1.83,0,2.6-.26,2.6-2.38q-.11-60.27,0-120.54c0-2-.59-2.52-2.54-2.52q-60.74.07-121.48,0c-2,0-2.48.68-2.48,2.58q.08,60.15,0,120.3c0,2.18.66,2.58,2.67,2.57C291.82,520.93,312,521,332.15,521Z" transform="translate(0.93 1.76)"/><path d="M359.68,114.75c0-4.93.08-9.19,0-13.46,0-1.81.44-2.6,2.38-2.41a32.59,32.59,0,0,0,4.74,0c1.25-.06,1.66.47,1.65,1.66q0,14,0,28c0,1.16-.37,1.83-1.64,1.7a.65.65,0,0,0-.24,0c-4,.64-7-.52-9.27-4.2s-5.16-6.8-7.79-10.16c-.47-.6-1-1.15-2-2.25v11.41c0,5.2,0,5.22-5.27,5.19-3.57,0-3.46.59-3.47-3.42,0-8.47,0-16.94,0-25.4,0-1.89.45-2.44,2.46-2.63,4.17-.39,7.12.74,9.41,4.5,2.08,3.42,4.87,6.41,7.36,9.58C358.38,113.4,358.84,113.84,359.68,114.75Z" transform="translate(0.93 1.76)"/><path d="M489.11,130.27c-3.53,0-6.37.07-9.2-.06a2.85,2.85,0,0,1-1.8-1.2c-1.61-2.24-3.2-4.52-4.61-6.9a2.62,2.62,0,0,0-3.43-1.18c-.56.19-.88,1.56-1,2.43a47.82,47.82,0,0,0,0,5.22c0,1.16-.38,1.82-1.64,1.69a3.85,3.85,0,0,0-.48,0c-6.74.18-6.74.18-6.74-6.53q0-11,0-22.06c0-2.77,0-2.77,2.87-2.77,4.11,0,8.22-.1,12.33,0a21.17,21.17,0,0,1,5.81,1,8.92,8.92,0,0,1,6.53,7.67c.55,4.26-.17,8.17-4.17,10.56-1.79,1.06-1.55,1.86-.55,3.24C485,124.14,486.85,127,489.11,130.27Zm-16.29-23.83,0,.16a6.12,6.12,0,0,0-1.87,0c-.66.23-1.77.82-1.74,1.16.19,2-1,4.18.77,5.94,0,0,.15,0,.23,0a51.47,51.47,0,0,0,6.34-.27,3.05,3.05,0,0,0,2.5-3.28,2.93,2.93,0,0,0-2.28-3.17A36.34,36.34,0,0,0,472.82,106.44Z" transform="translate(0.93 1.76)"/><path d="M412.19,65.73c0-4.58.06-9.17,0-13.75,0-1.55.46-2.06,2-2,4.88.21,9.83-.14,14.65.53,8.4,1.17,13.12,7.1,13,15.38a14.81,14.81,0,0,1-13.67,15c-4.77.5-9.62.25-14.43.38-1.33,0-1.54-.66-1.53-1.77C412.22,74.89,412.19,70.31,412.19,65.73Zm8.73-.18v2.84c0,5.3,1,6.06,6.32,4.63l.46-.14c3.55-1.13,5.28-3.78,5.08-7.8a7,7,0,0,0-5.71-6.88c-1.38-.28-2.81-.26-4.22-.41s-2,.37-2,1.86C421,61.61,420.92,63.58,420.92,65.55Z" transform="translate(0.93 1.76)"/><path d="M318.3,81.85c-9.55,0-16.74-7-16.73-16.26s7.24-16.13,16.84-16.14,16.83,7,16.77,16.22S327.83,81.85,318.3,81.85Zm.08-8c4.45,0,7.77-3.46,7.78-8.12s-3.64-8.42-8-8.35-7.55,3.53-7.59,8.09C310.58,70.26,313.86,73.81,318.38,73.81Z" transform="translate(0.93 1.76)"/><path d="M427.86,114.38c0-4.5.06-9,0-13.51,0-1.58.5-2,2-2,7,.06,14.07.07,21.1,0,1.67,0,2.13.52,2.14,2.16,0,5.5.07,5.5-5.44,5.5-3.16,0-6.33.08-9.48,0-1.69-.06-1.75.85-1.68,2.07s-.36,2.45,1.61,2.4c3.71-.07,7.43.07,11.14,0,1.79-.06,2.3.57,2.3,2.32,0,4.74.07,4.74-4.76,4.74-2.76,0-5.54.14-8.29,0-2.11-.15-2,1-2,2.46s0,2.35,1.94,2.29c4.26-.15,8.54,0,12.8-.08,1.55,0,2,.46,2,2,.08,5.65.13,5.65-5.52,5.65-5.85,0-11.7-.08-17.54,0-1.93,0-2.4-.61-2.36-2.43C427.94,123.39,427.86,118.89,427.86,114.38Z" transform="translate(0.93 1.76)"/><path d="M311.22,108.82c0,2.77-.15,5.55,0,8.3.25,3.75,2.15,5.56,5.44,5.59,3.05,0,5.1-1.43,5.38-4.49.34-3.68.23-7.41.28-11.12,0-2.14.07-4.28,0-6.41,0-1.3.36-1.87,1.74-1.8,1.82.1,3.64.08,5.46,0,1.28-.06,1.87.32,1.85,1.71-.11,5.92.08,11.87-.27,17.77-.45,7.55-5.12,11.91-12.71,12.34a22.47,22.47,0,0,1-4.26-.08c-7.47-.94-11.35-4.79-11.84-12.39-.37-5.91-.13-11.86-.22-17.79,0-1.31.6-1.59,1.74-1.56,1.89.06,3.79.07,5.69,0,1.22-.05,1.68.37,1.65,1.62-.07,2.77,0,5.53,0,8.3Z" transform="translate(0.93 1.76)"/><path d="M407.5,81.24c-3,0-5.64.14-8.22-.09-.71-.06-1.58-1.1-1.94-1.89-1.58-3.49-1.53-3.52-5.41-3.52a18.73,18.73,0,0,1-2.37,0c-3.58-.48-6.56-.07-7.26,4.33A1.77,1.77,0,0,1,381,81.17c-2.65.1-5.31,0-8.26,0,.33-1,.51-1.64.77-2.26,3.84-9.09,7.72-18.16,11.49-27.28a2.76,2.76,0,0,1,3-2c6.25,0,6.24-.06,8.71,5.81q4.88,11.56,9.79,23.12C406.8,79.33,407.05,80.06,407.5,81.24Zm-17.23-20-.56.07-2.94,7.51h6.44Z" transform="translate(0.93 1.76)"/><path d="M491.83,125.68c.48-.65.66-.91.86-1.16,1.21-1.45,2.19-3.65,3.72-4.14,1.3-.42,3.18,1.33,4.9,1.74a37,37,0,0,0,6.95.94c.66,0,1.68-.91,1.93-1.62.15-.43-.72-1.51-1.36-1.88a17,17,0,0,0-3.36-1.11c-2-.61-4.12-1.11-6.11-1.84-3.46-1.27-5.72-3.61-5.91-7.49-.19-4.1,1.38-7.44,5.14-9.12,6.48-2.89,12.78-1.94,18.73,1.76,1,.61,1,1.29.32,2.13a2.14,2.14,0,0,0-.13.19c-1,1.41-1.76,3.5-3.12,4-1.15.46-3-1-4.57-1.38a26,26,0,0,0-5.55-.66,2.31,2.31,0,0,0-1.68,1.52,2.55,2.55,0,0,0,1.33,1.89,27.27,27.27,0,0,0,4.05,1.28c2,.61,4,1.09,5.85,1.87,3.21,1.34,5.29,3.59,5.4,7.34.11,4-1.32,7.17-4.94,9-5.72,2.88-11.52,2.13-17.19-.19A42.16,42.16,0,0,1,491.83,125.68Z" transform="translate(0.93 1.76)"/><path d="M363.6,70.07c1.78,1.26,3.49,2.54,5.27,3.71,1,.68,1.1,1.21.3,2.21-4.36,5.52-12.38,7.47-19.37,4.62A16.06,16.06,0,0,1,340.18,64c.91-6.8,4.47-11.74,11.1-13.72,6.35-1.89,12.37-1,17.27,4.06,1.09,1.12,1.45,2-.15,2.91a11.59,11.59,0,0,0-1.12.87c-1.2.91-2.32,2.37-3.62,2.54-1,.13-2.19-1.39-3.34-2.09a7.13,7.13,0,0,0-8.89,1.23,9,9,0,0,0,.25,12.08c3,2.86,7.29,2.55,10.8-.76C362.82,70.75,363.18,70.44,363.6,70.07Z" transform="translate(0.93 1.76)"/><path d="M389.89,98.92c3.05,0,5.81-.11,8.55.08a2.76,2.76,0,0,1,1.82,1.63c1.85,4.87,3.57,9.78,5.33,14.68l1,2.72c.54-1.31.92-2.18,1.24-3.06,1.71-4.75,3.45-9.5,5.08-14.27a2.21,2.21,0,0,1,2.54-1.82c2.5.12,5,0,7.83,0-1.22,3-2.29,5.73-3.38,8.42-2.83,7-5.7,14-8.46,21.09a2.48,2.48,0,0,1-2.69,1.95c-6.27,0-6.26.06-8.61-5.78l-9.31-23C390.54,100.77,390.27,100,389.89,98.92Z" transform="translate(0.93 1.76)"/><path d="M571,98.92c2.91,0,5.68-.1,8.43.07a3.13,3.13,0,0,1,2.06,1.46c1.84,3,3.53,6.11,5.5,9.58,1.85-3.22,3.59-6,5.06-9a3.54,3.54,0,0,1,3.89-2.2c2.26.15,4.53,0,7.25,0-.77,1.3-1.3,2.23-1.86,3.15-2.92,4.79-5.92,9.53-8.72,14.39a11,11,0,0,0-1.25,4.4,54.62,54.62,0,0,0,0,7.35c.1,1.73-.59,2.21-2.19,2.09a32.18,32.18,0,0,0-4.5,0c-1.49.09-2.29-.37-2.07-2,0-.08,0-.16,0-.24,1-6.82-1.24-12.61-5.19-18.05-2.35-3.25-4.21-6.87-6.28-10.33A2.88,2.88,0,0,1,571,98.92Z" transform="translate(0.93 1.76)"/><path d="M553.39,98.92c3.88,0,7.75,0,11.62,0,1.45,0,2.07.27,2.09,1.92.06,5.88.13,5.88-5.72,5.88a11.21,11.21,0,0,1-1.42,0c-1.71-.22-2.15.59-2.13,2.18.06,6.09,0,12.17,0,18.26,0,3.14,0,3.14-3,3.15-5.89,0-5.89,0-5.89-5.93,0-5.21,0-10.43,0-15.64,0-1.54-.42-2.15-2-2s-3.32,0-5,0c-.47,0-1.13.17-1.39-.07-2-1.83-.59-4.22-1-6.34-.2-1.2.66-1.38,1.65-1.37C545.33,98.93,549.36,98.92,553.39,98.92Z" transform="translate(0.93 1.76)"/><path d="M525.73,114.38c0-4.5,0-9,0-13.5,0-1.57.5-2.09,2-2a50.3,50.3,0,0,0,5.21,0c1.25-.06,1.64.48,1.64,1.67q0,14,0,27.93c0,1.31-.46,1.86-1.81,1.79a50.11,50.11,0,0,0-5.2,0c-1.49.08-1.89-.57-1.88-2C525.76,123.69,525.73,119,525.73,114.38Z" transform="translate(0.93 1.76)"/><path d="M385.22,114.39c0,4.58-.06,9.15,0,13.73,0,1.58-.37,2.31-2.09,2.18a47.47,47.47,0,0,0-5.2,0c-1.24,0-1.67-.51-1.66-1.69q0-14.09,0-28.16c0-1.09.39-1.65,1.53-1.52.15,0,.31,0,.47,0,2.19.06,5.16-.7,6.36.43s.51,4.11.55,6.28C385.26,108.55,385.22,111.47,385.22,114.39Z" transform="translate(0.93 1.76)"/><path d="M156.27,310c0-10,0-20.09,0-30.13,0-1.51.21-2.32,2-2.28,9.48.18,19-.17,28.45.47,11.32.76,21,5.15,27.09,15.4,11.47,19.43.08,43.91-22.49,48.08-4.85.9-9.9.91-14.86,1.05-5.93.17-11.87-.05-17.79.09-2.06.05-2.46-.63-2.44-2.54C156.32,330.05,156.27,320,156.27,310Zm18.18,0v14.69c0,.88-.13,1.82,1.24,1.74,3.85-.2,7.79,0,11.55-.67,7.61-1.44,12-7.24,12.13-15.05.11-8.44-4-14.3-11.83-16-3.58-.77-7.36-.56-11-.89-1.73-.15-2.1.58-2.07,2.17C174.51,300.59,174.45,305.26,174.45,309.92Z" transform="translate(0.93 1.76)"/><path d="M119.48,209c0,19.12-15.27,34-35,33.8C64.42,242.63,49.7,228,49.67,209c0-19.25,15.33-33.72,35.35-33.7C104.61,175.34,119.48,189.87,119.48,209ZM84.55,226.26c9.33.07,16.46-7.31,16.52-17.11.07-9.55-7.22-17.31-16.37-17.44S68.31,199,68.21,208.85C68.12,218.47,75.36,226.19,84.55,226.26Z" transform="translate(0.93 1.76)"/><path d="M48.34,342.68c3.1-7.37,6-14.28,8.91-21.17,5.91-14,11.87-27.91,17.7-41.91a3,3,0,0,1,3.32-2.18c4.42.11,8.86.08,13.29,0A2.27,2.27,0,0,1,94.08,279q13.1,31.13,26.26,62.21c.15.35.23.73.47,1.47h-7.7c-3.25,0-6.49-.07-9.73,0a2.41,2.41,0,0,1-2.75-1.91c-.8-2.31-1.88-4.52-2.74-6.81a2.08,2.08,0,0,0-2.25-1.58c-7.52.05-15,0-22.55.09a2.84,2.84,0,0,0-2,1.41c-1.12,2.35-1.93,4.84-3,7.2-.29.65-1.13,1.48-1.73,1.49C60.49,342.72,54.65,342.68,48.34,342.68ZM77,318.14H91.92L84.5,299.35C81.91,305.86,79.51,311.88,77,318.14Z" transform="translate(0.93 1.76)"/><path d="M187.16,175.3c10.76,0,19.47,3.58,26.23,11.66,1.29,1.53,1.22,2.3-.39,3.46q-5.2,3.74-10.12,7.84c-1.37,1.14-2.07,1-3.19-.3-4.1-4.85-9.4-7-15.65-5.72-6.71,1.39-10.33,6.11-11.83,12.5a18.79,18.79,0,0,0,1.47,12.71,15,15,0,0,0,23.06,5.45c1.43-1.09,2.59-2.55,4-3.68a2,2,0,0,1,1.89-.21c3.85,2.63,7.59,5.41,11.44,8.05,1.53,1,.62,1.76-.05,2.63-7.46,9.72-17.54,13.69-29.5,13-14.5-.86-25.66-9.59-30-23a34.41,34.41,0,0,1,10.57-36.74A33.11,33.11,0,0,1,187.16,175.3Z" transform="translate(0.93 1.76)"/><path d="M360.62,447.59c0,6.4.34,12.82-.07,19.2-.89,13.92-9.65,22.64-23.58,23.83-6.18.53-12.35.36-18.23-2-9.64-3.81-14.24-11.47-14.7-21.33-.57-12.31-.3-24.65-.44-37,0-1.4.43-2,1.91-1.94,4.5.07,9,.1,13.51,0,1.8,0,2.28.55,2.27,2.3-.07,10.28-.05,20.56,0,30.83a33.46,33.46,0,0,0,.29,4.25c.76,5.93,4.57,9.4,10.45,9.57s10-3.16,11-9.19a25.61,25.61,0,0,0,.32-4c0-10.44.05-20.87,0-31.31,0-1.78.37-2.51,2.33-2.44,4.26.15,8.54.15,12.81,0,2.06-.08,2.51.71,2.47,2.6-.1,5.53,0,11.07,0,16.6Z" transform="translate(0.93 1.76)"/></svg>